<?xml version="1.0" encoding="UTF-8"?><svg id="uuid-a49b1757-fe39-4b25-b9e9-6692aae7b84d" xmlns="http://www.w3.org/2000/svg" viewBox="0 0 425.2 112.59"><g id="uuid-74597900-bf8c-4faf-bc27-277f45f1ecd8"><g id="uuid-88bf004c-cb43-4c46-98ea-4291ce00fe94"><path d="M110.87,75.38c.92,0,1.67,.75,1.67,1.67s-.75,1.67-1.67,1.67-1.67-.75-1.67-1.67,.75-1.67,1.67-1.67Zm23.66-59.68l-48.05-6.23c-.25-.03-.48,.04-.67,.2-.19,.17-.29,.38-.29,.63V50.1c0,1.37-1.09,2.49-2.46,2.53-19.66,.57-35.78,15.27-38.57,34.3-.18,1.25-1.24,2.16-2.5,2.16H9.01c-2.49,0-4.74-1.01-6.37-2.64-1.63-1.63-2.64-3.88-2.64-6.37s1.01-4.74,2.64-6.37,3.88-2.64,6.37-2.64c1.33,0,2.63,.3,3.81,.85,1.18,.55,2.24,1.36,3.1,2.38,.45,.53,.38,1.33-.16,1.78-.53,.45-1.33,.38-1.78-.16-.62-.74-1.38-1.32-2.23-1.72-.84-.39-1.78-.61-2.75-.61-1.79,0-3.41,.73-4.58,1.9-1.17,1.17-1.9,2.79-1.9,4.58s.73,3.41,1.9,4.58c1.17,1.17,2.79,1.9,4.58,1.9h11.63c1.11,0,2.03-.81,2.17-1.91,3.84-29.2,27.99-52,57.8-53.73,1.34-.08,2.38-1.18,2.38-2.52V10.31c0-.25-.1-.47-.29-.63-.19-.17-.42-.24-.67-.2l-48.05,6.23c-3.26,.42-6.85-.17-9.58-2.04-2.1-1.44-3.4-3.47-3.4-5.75s1.3-4.31,3.4-5.75C27.15,.3,30.74-.29,34,.13l50.27,6.52L134.54,.13c3.26-.42,6.85,.17,9.58,2.04,2.1,1.44,3.4,3.47,3.4,5.75s-1.3,4.31-3.4,5.75c-2.73,1.87-6.32,2.46-9.58,2.04h0Zm-43.68,15.46c31.14,3.29,55.4,29.63,55.4,61.64,0,4.38-.46,8.65-1.32,12.77-.62,2.96-3.16,5.03-6.19,5.03H29.79c-3.02,0-5.57-2.06-6.19-5.03-.86-4.12-1.32-8.39-1.32-12.77,0-.4,0-.79,.02-1.19H124.44c-.37-12.69-6.62-23.9-16.12-31.01,.16-.09-4.11-8.06-4.52-8.8-.07-.12-.19-.18-.32-.17-.14,.01-.24,.1-.29,.22-.55,1.54-1.14,3.2-1.8,4.57-4.11-1.94-8.6-3.2-13.32-3.64v-19.11c0-.74,.29-1.38,.84-1.88,.55-.5,1.22-.71,1.96-.64Zm18.92,42.24c2.56,0,4.64,2.08,4.64,4.64s-2.08,4.64-4.64,4.64-4.64-2.08-4.64-4.64,2.08-4.64,4.64-4.64Z" style="fill:gray; fill-rule:evenodd;"/><path d="M254.7,15.04c-1.64-2.79-5.74-2.05-8.35-1.68-.17,.02-.16,.08-.25,.19-.94,1.17-.29,5.13,.54,6.3-.08-.01,.08,.15,.15,.19,.07,.06,.13,.08,.19,.11,.06,.02,.17,.03,.17,.03,.55,.42,5.92,1.03,6.94-.11,.26-.28,.82-4.67,.61-5.04h0Z" style="fill:gray;"/><path d="M253.06,25.44c-.77-2.33-6.26,.1-7.27,.5l-.25,.22-.1,.23c-.57,1.11-4.82,28.01-2.92,29.59,2.32,1.8,8.1,.03,8.99-2.22,2.27-6.1,2.76-20.93,1.56-28.32h0Z" style="fill:gray;"/><path d="M241.71,21.94c1.26-3.78-4.22-4.33-7.24-4.99-.16-.03-.17,.02-.31,.1-.93,.51-4.76,10.09-5.49,11.71-2.16-2.4-7.14-12.39-7.81-12.7-3.12-1.3-5.73,1.49-7.81,3.39-1.17,1.07,9.57,14.46,10.37,19.27,.01,.03,.01,.06,.02,.09-1.19,2.77-8.04,13.4-8.21,16.2-.08,1.35,.62,1.62,1.22,2.66,1.33,.17,5.86,.88,6.12,.7,1.82-1.25,16.46-28.41,19.14-36.44h0Z" style="fill:gray;"/><path d="M207.92,15.01c-.12-.1-.13-.17-.19-.22-3.44-2.43-7.76-1.74-8.33-.05-.78,2.32,.75,33.66,2.91,42.95,.66,2.84,7.52-.42,7.81-1.21,1.79-4.77-1.07-40.53-2.2-41.47h0Z" style="fill:gray;"/><path d="M172.85,57.14c3.43,2.07,4.87,1.97,7.26-.06,.31-.28-.03-18.27,.18-18.31,1.79-.64,12.18,.38,14.32-.63,2.27-1.05,3.8-5.8,1.91-6.86-8.44-4.75-11.43,2.16-16.48-.82,0-2.79,.03-5.87-.08-8.62,2.26,0,13.45-.12,14.57-.64,3.32-1.56,4.13-8.22,.75-9.2-2.13-.61-22.14-.09-24.29,3.28-.45,.68-1.48,2.29-1.36,3.16,.79,5.55,2.16,38.06,3.21,38.71h0Z" style="fill:gray;"/><path d="M267.01,22.5c-.21-.74-.04-3.96-.18-4.15-1.91-2.23-8.01-2.09-8.97-.58-.08,.11-.07,.21-.07,.21-.15,1.6,1.43,39.18,1.43,39.19,1.42,2.84,8.57,.37,9.26-2.45,.61-2.47-.52-17.96-.29-23.13,.17-3.84,9.11-3.72,9.54-1.58,1,4.96,2.42,23.68,2.52,26.02,0,0,.01,.09,.1,.19,1.02,1.28,7.15,.63,8.61-1.4,.08-.13,.13-.29,.18-.39,.5-.67-1.58-28.45-2.93-30.98-3.16-5.5-14.61-3.22-19.22-.95h0Zm55.39,7.35c-1.51-2.95-18.98-6.2-21.5-5.5-8.54,2.84-7.98,13.07-7.98,20.35,0,8.39,16.57,4.64,17.69,6.71-.73,1.6-1.32,9.13-2.78,9.89-4.74,3.89-9.26,.86-12.55-2.89-1.89-2.15-4.93,3.04-4.4,7.03,.76,5.88,15.74,6.57,20.19,3.14,4.98-3.84,15.5-30.41,11.33-38.74h0Zm-19.52,12.27c-1.74-1.12-.29-6.85,.95-8.34,1.31-.25,7.64,1.05,8.56,2.38,.4,1.12,.12,4.65-.78,5.64-1.71,1.88-7.66,.99-8.73,.32h0Z" style="fill:gray;"/><path d="M416.03,27.25c.54-.01,7.27,.35,7.47,.23,2.01-1.42,2.08-6.89,1.02-7.71-.1-.08-.19-.09-.19-.09-2.05-.35-5.48-.43-7.62-.43,.07-.43,.58-4.85,.18-5.48-.09-.14-.1-.19-.16-.25-2.25-1.88-4.98-2.38-7.81-1.43-.15,.06-.23,.06-.4,.08-.16,.02-.15,.08-.24,.19-1.08,1.32,.2,4.56-.27,6.12-1.45-.25-7.85-.79-8.73,.3-1.17,1.66-.18,5.95,.67,6.69,3.14,2.7,3.87,1.31,7.34,1.62-.64,8.47-2.92,16.68-2.29,25.03,.44,5.36,13.34,5.05,14.15,4.23,1.46-1.42,1.83-6.45,.63-7.38-.1-.08-.19-.09-.19-.09-1.59-.27-4.96,.37-5.18-.42,.72-7.51,2.16-13.63,1.62-21.21h0Z" style="fill:gray;"/><path d="M376.67,42.08c0-3.36,5.94-5.96,8.38-6.71,5-1.54,3.73,5.42,2.05,7.95-.04,.07-10.43,3.58-10.43-1.24Zm-3.44-14.26c1.24-.21,16.41-6.57,14.65-.14-.02,.07-19.96,3.94-19.08,14.88,.59,5.79,5.99,11.17,11.71,10.09,2.66-.51,4.44-2.98,5.15,.14,.12,.53-1.55,2.68,.14,3.41,1.24,.54,5.18,1.43,5.97-.08,2.55-4.46,7.11-26.57,3.95-32.2-8-14.35-29.18-6.55-27.82-1.01,.61,2.43,1.81,5.5,5.33,4.91h0Z" style="fill:gray;"/><path d="M356.92,22.01c1.27,2.53-5.6,10.54-6.73,10.67l-2.37-.05c-.61-1.54,.21-11.23,.21-11.23,2.31-3.3,7.05-2.98,8.89,.61h0Zm-17.02,30.86c2.77,5.73,9.5,2.98,9.59-1.33,.07-4.15-2.82-9.34-.58-13.29,2.66,.95,6.03,15.31,10.88,15.31,4.63-.05,8.69-6.4,5.32-9.97-1.31-1.37-8.67-7.57-8.14-9.24,1.12-3.57,8.82-3.25,7.88-12.58-1.29-13.37-24.87-10.03-25.27-4.4-.15,2.22,.08,34.95,.33,35.5h0Z" style="fill:gray;"/><path d="M207.84,100.37c-2.49,6.81,2.45,11.82,9.41,11.5,7.25-.34,17.77-4.98,15.91-14.73-.86-4.53-5.71-10.32-9.56-12.95-3.39-2.29-9.23-10.01-3.13-9.4,5.16,.45,4.12,5.66,8.67,4.3,3.14-.92,7.62-5.86,3.87-8.56-5.67-4.07-11.17-6.52-15.3-5.79-6.87,1.21-10.71,8.72-9.71,13.44,2.61,12.29,13.83,10.97,15.73,18.43,.04,2.76,.3,3.37-2.21,5.39-2.9,2.33-5.61,.41-4.6-.54,.86-.81,2.06-1.18,2.73-1.97,1.15-1.4,1.1-4.91,.27-5.19-7.61-2.6-9.83-.06-12.08,6.07h0Zm83.39,2.83c1.02-2.34-.73-31.12-.73-31.12-2.27-3.01-5.98-1.54-8.73-.95-.16,.05-.15,.1-.23,.22-.07,.1,1.09,26.96,.1,27.52-1.1,.6-5.8,.8-7.77,.02,0-5.83,1.12-19.68-.13-24.48-.51-1.99-8.21-5.91-9.1-2.58-.78,2.91-.27,29.77-.71,39.56,0,0,0,.1,.08,.22,1.03,1.48,7.34,1.26,8.7-.45,.6-.75-.13-2.69,.32-4.48,2.23,1.4,15.99,2.01,18.19-3.48h0Z" style="fill:gray;"/><path d="M357.24,97.8c-4.33,0-5.68-1.45-5.38-6.17,.23-2.8,2.45-5.4,4.68-6.15,4.2-1.42,5.95,2.63,6.54,6.44,.49,3.17-3.24,5.88-5.85,5.88h0Zm15.16-4.65c2.64-8.86-7.97-21.78-16.33-19.73-7.65,1.87-11.94,7.98-13.21,16.04-1.69,10.66,.32,16.37,10.5,18.48,10.68,2.26,17.31-4.11,19.04-14.79h0Z" style="fill:gray;"/><path d="M313.18,94.91c.02,.1,.03,.17,.05,.24-.31,2.38,.03,4.27-2.08,5.58-.62-.03-7.74-.51-7.75-.51-.86-1.74-.91-7.64,1.03-8.33,1.36-.48,8.18,.08,8.76,3.02h0Zm12.86-27.13c.03-.08,.08-.06,.03-.17-1.53-3.43-5.27-3.05-8.32-2.85-.17,.01-.16,.07-.26,.17-1.28,1.43-1.99,18.2-3.71,20.09-2.21,.44-11.05-3.9-16.25-.78-3.35,2.01-5.13,17.86-2.71,21.62,1.29,2.42,17.65,6.11,25.71,2.51,2.91-1.3,2.32-34.28,5.5-40.59h0Z" style="fill:gray;"/><path d="M253.02,79.89c.54-.01,7.27,.35,7.47,.23,2.01-1.42,2.08-6.89,1.02-7.71-.1-.08-.19-.09-.19-.09-2.05-.35-5.48-.43-7.62-.43,.07-.43,.58-4.85,.18-5.48-.09-.14-.1-.19-.16-.25-2.25-1.88-4.98-2.38-7.81-1.43-.15,.06-.23,.06-.4,.08-.16,.02-.15,.08-.24,.19-1.08,1.32,.2,4.56-.27,6.12-1.45-.25-7.85-.79-8.73,.3-1.17,1.66-.18,5.95,.67,6.69,3.14,2.7,3.87,1.31,7.34,1.62-.64,8.47-2.92,16.68-2.29,25.03,.44,5.36,13.34,5.05,14.15,4.23,1.46-1.42,1.83-6.45,.63-7.38-.1-.08-.19-.09-.19-.09-1.59-.27-4.96,.37-5.18-.42,.72-7.51,2.16-13.63,1.62-21.21h0Z" style="fill:gray;"/><path d="M337.94,77.9c-.77-2.33-6.26,.1-7.27,.5l-.25,.22-.1,.23c-.57,1.11-4.82,28.01-2.92,29.59,2.32,1.8,8.1,.03,8.99-2.22,2.27-6.1,2.76-20.93,1.56-28.32h0Z" style="fill:gray;"/><path d="M339.59,67.5c-1.64-2.79-5.74-2.05-8.35-1.68-.17,.02-.16,.08-.25,.19-.94,1.17-.29,5.13,.54,6.3-.08-.01,.08,.15,.15,.19,.07,.06,.13,.08,.19,.11,.06,.02,.17,.03,.17,.03,.55,.42,5.92,1.03,6.94-.11,.26-.28,.82-4.67,.61-5.04h0Z" style="fill:gray;"/></g></g></svg>