<?xml version="1.0" encoding="UTF-8"?><svg id="uuid-71284cbd-fbca-4e2a-bcff-00645418b817" xmlns="http://www.w3.org/2000/svg" viewBox="0 0 192.61 226.77"><g id="uuid-63cec477-09c9-447d-8279-c45242537ad1"><g id="uuid-8a1e8fcc-10d2-49af-8f7e-1557f1920c1d"><path d="M129.38,87.96c1.08,0,1.95,.87,1.95,1.95s-.87,1.95-1.95,1.95-1.95-.87-1.95-1.95,.87-1.95,1.95-1.95Zm27.61-69.64l-56.07-7.27c-.29-.04-.56,.04-.78,.24-.22,.19-.33,.45-.33,.74V58.46c0,1.6-1.27,2.9-2.87,2.95-22.94,.67-41.75,17.82-45,40.02-.21,1.46-1.44,2.52-2.92,2.52H10.51c-2.9,0-5.53-1.18-7.43-3.08-1.9-1.9-3.08-4.53-3.08-7.43s1.18-5.53,3.08-7.43c1.9-1.9,4.53-3.08,7.43-3.08,1.55,0,3.07,.35,4.45,.99,1.38,.64,2.62,1.59,3.61,2.78,.52,.62,.44,1.55-.18,2.07-.62,.52-1.55,.44-2.07-.18-.72-.86-1.61-1.54-2.6-2-.98-.46-2.08-.71-3.2-.71-2.09,0-3.98,.85-5.35,2.22-1.37,1.37-2.22,3.26-2.22,5.35s.85,3.98,2.22,5.35c1.37,1.37,3.26,2.22,5.35,2.22h13.58c1.29,0,2.37-.94,2.54-2.23,4.48-34.08,32.66-60.68,67.45-62.7,1.56-.09,2.78-1.38,2.78-2.95V12.03c0-.29-.11-.55-.33-.74s-.49-.27-.78-.24l-56.07,7.27c-3.8,.49-7.99-.2-11.18-2.38-2.45-1.68-3.97-4.05-3.97-6.71s1.52-5.03,3.97-6.71C31.68,.35,35.87-.34,39.67,.15l58.66,7.6L156.99,.15c3.8-.49,7.99,.2,11.18,2.38,2.45,1.68,3.97,4.05,3.97,6.71s-1.52,5.03-3.97,6.71c-3.19,2.18-7.37,2.87-11.18,2.38h0Zm-50.97,18.04c36.34,3.84,64.65,34.57,64.65,71.93,0,5.11-.53,10.09-1.54,14.9-.72,3.45-3.69,5.86-7.22,5.86H34.76c-3.53,0-6.5-2.41-7.22-5.86-1.01-4.81-1.54-9.79-1.54-14.9,0-.46,0-.92,.02-1.38h119.19c-.43-14.81-7.72-27.89-18.81-36.19,.18-.11-4.79-9.41-5.28-10.26-.08-.14-.22-.21-.38-.2-.16,.01-.29,.11-.34,.26-.65,1.79-1.33,3.73-2.11,5.33-4.79-2.26-10.03-3.73-15.55-4.25v-22.3c0-.87,.33-1.61,.98-2.19,.64-.58,1.42-.83,2.28-.74h0Zm22.08,49.29c2.99,0,5.42,2.42,5.42,5.42s-2.42,5.42-5.42,5.42-5.42-2.42-5.42-5.42,2.42-5.42,5.42-5.42Z" style="fill-rule:evenodd;"/><path d="M62.86,150.07c-1.21-2.06-4.24-1.51-6.16-1.24-.13,.02-.12,.06-.19,.14-.69,.86-.21,3.79,.4,4.65-.06,0,.06,.11,.11,.14,.05,.04,.09,.06,.14,.08,.04,.02,.13,.02,.13,.02,.41,.31,4.37,.76,5.12-.08,.19-.21,.61-3.44,.45-3.72Z"/><path d="M61.65,157.74c-.57-1.72-4.62,.07-5.37,.37l-.19,.16-.08,.17c-.42,.82-3.56,20.67-2.15,21.83,1.71,1.33,5.98,.03,6.63-1.64,1.68-4.5,2.04-15.45,1.15-20.9h0Z"/><path d="M53.27,155.16c.93-2.79-3.11-3.2-5.34-3.68-.12-.03-.13,.02-.23,.08-.69,.38-3.51,7.45-4.05,8.64-1.6-1.77-5.27-9.14-5.76-9.37-2.3-.96-4.23,1.1-5.76,2.5-.86,.79,7.06,10.67,7.66,14.22,0,.03,0,.04,.02,.07-.88,2.05-5.93,9.89-6.06,11.95-.06,.99,.46,1.2,.9,1.97,.98,.12,4.32,.65,4.52,.51,1.35-.92,12.14-20.96,14.12-26.89Z"/><path d="M28.34,150.04c-.09-.08-.09-.13-.14-.16-2.54-1.79-5.72-1.28-6.14-.03-.58,1.71,.56,24.84,2.14,31.69,.48,2.09,5.55-.31,5.76-.9,1.32-3.52-.79-29.91-1.62-30.6h0Z"/><path d="M2.46,181.12c2.53,1.53,3.59,1.45,5.36-.04,.23-.21-.02-13.48,.13-13.51,1.32-.48,8.99,.28,10.57-.46,1.68-.77,2.8-4.28,1.41-5.06-6.22-3.5-8.43,1.6-12.16-.61,0-2.06,.02-4.33-.06-6.36,1.67,0,9.92-.09,10.75-.47,2.45-1.15,3.05-6.07,.56-6.79-1.57-.45-16.33-.07-17.93,2.42-.33,.5-1.1,1.69-1,2.33,.58,4.1,1.59,28.08,2.37,28.56h0Z"/><path d="M71.94,155.57c-.15-.55-.03-2.93-.13-3.06-1.41-1.64-5.91-1.54-6.62-.43-.06,.08-.05,.15-.05,.15-.11,1.18,1.05,28.91,1.05,28.92,1.05,2.1,6.32,.27,6.84-1.81,.45-1.82-.38-13.25-.21-17.07,.13-2.84,6.72-2.74,7.04-1.16,.74,3.66,1.78,17.47,1.86,19.2,0,0,0,.07,.08,.14,.75,.94,5.27,.46,6.36-1.03,.06-.09,.09-.21,.14-.29,.37-.49-1.17-20.99-2.16-22.86-2.33-4.06-10.78-2.37-14.18-.7h0Zm40.87,5.43c-1.12-2.18-14.01-4.57-15.87-4.06-6.3,2.1-5.89,9.65-5.89,15.01,0,6.19,12.23,3.42,13.06,4.95-.54,1.18-.97,6.74-2.05,7.3-3.5,2.87-6.83,.63-9.26-2.14-1.39-1.59-3.64,2.25-3.25,5.19,.56,4.34,11.61,4.85,14.9,2.32,3.67-2.84,11.44-22.44,8.36-28.59Zm-14.41,9.06c-1.29-.83-.22-5.05,.7-6.15,.97-.18,5.64,.77,6.31,1.76,.3,.83,.09,3.43-.57,4.16-1.27,1.39-5.66,.73-6.44,.24h0Z"/><path d="M185.85,159.07c.4,0,5.37,.26,5.51,.17,1.49-1.04,1.53-5.08,.75-5.69-.08-.06-.14-.07-.14-.07-1.51-.26-4.05-.32-5.62-.32,.05-.32,.43-3.58,.13-4.04-.07-.1-.08-.14-.12-.19-1.66-1.38-3.67-1.76-5.76-1.05-.11,.04-.17,.04-.3,.06-.12,.02-.11,.06-.18,.14-.79,.97,.15,3.36-.2,4.52-1.07-.19-5.79-.58-6.44,.22-.86,1.23-.14,4.39,.5,4.94,2.31,1.99,2.86,.97,5.42,1.2-.47,6.25-2.16,12.31-1.69,18.47,.33,3.96,9.84,3.72,10.44,3.12,1.08-1.05,1.35-4.76,.46-5.44-.08-.06-.14-.07-.14-.07-1.17-.2-3.66,.27-3.82-.31,.53-5.54,1.59-10.06,1.2-15.65h0Z"/><path d="M156.8,170.02c0-2.48,4.38-4.4,6.19-4.95,3.69-1.14,2.75,4,1.51,5.87-.03,.05-7.7,2.65-7.7-.91h0Zm-2.54-10.52c.92-.15,12.11-4.85,10.81-.1-.02,.05-14.73,2.91-14.08,10.98,.44,4.27,4.42,8.24,8.64,7.44,1.96-.37,3.28-2.2,3.8,.1,.09,.39-1.14,1.98,.1,2.52,.92,.4,3.82,1.05,4.41-.06,1.88-3.29,5.24-19.61,2.91-23.76-5.9-10.59-21.53-4.83-20.53-.74,.45,1.79,1.34,4.06,3.93,3.62h0Z"/><path d="M142.23,155.21c.94,1.87-4.13,7.78-4.96,7.87l-1.75-.03c-.45-1.14,.15-8.29,.15-8.29,1.7-2.44,5.2-2.2,6.56,.45h0Zm-12.56,22.77c2.04,4.23,7.01,2.2,7.07-.98,.05-3.06-2.08-6.89-.43-9.81,1.97,.7,4.45,11.3,8.03,11.3,3.42-.04,6.41-4.72,3.92-7.36-.96-1.01-6.4-5.59-6.01-6.82,.83-2.63,6.51-2.4,5.82-9.28-.95-9.86-18.35-7.4-18.64-3.25-.11,1.64,.06,25.79,.24,26.2h0Z"/><path d="M36.57,217.76c-1.84,5.02,1.81,8.72,6.95,8.48,5.35-.25,13.11-3.67,11.74-10.87-.64-3.34-4.21-7.62-7.06-9.55-2.5-1.69-6.81-7.39-2.31-6.94,3.81,.33,3.04,4.18,6.4,3.17,2.31-.68,5.62-4.32,2.85-6.31-4.18-3-8.25-4.81-11.29-4.27-5.07,.89-7.91,6.44-7.16,9.92,1.93,9.07,10.2,8.1,11.6,13.6,.03,2.04,.22,2.49-1.63,3.98-2.14,1.72-4.14,.3-3.39-.4,.64-.6,1.52-.87,2.02-1.45,.85-1.03,.81-3.62,.2-3.83-5.61-1.92-7.25-.05-8.91,4.48h0Zm61.54,2.08c.76-1.73-.54-22.96-.54-22.97-1.67-2.22-4.42-1.14-6.44-.7-.12,.03-.11,.08-.17,.16-.05,.08,.8,19.89,.08,20.31-.81,.45-4.28,.59-5.73,.02,0-4.3,.82-14.52-.09-18.06-.38-1.47-6.06-4.36-6.72-1.91-.58,2.15-.2,21.97-.52,29.19,0,0,0,.08,.06,.16,.76,1.09,5.41,.93,6.42-.33,.45-.56-.1-1.99,.24-3.31,1.65,1.03,11.8,1.48,13.42-2.57h0Z"/><path d="M146.82,215.86c-3.2,0-4.19-1.07-3.97-4.55,.17-2.06,1.81-3.98,3.45-4.54,3.1-1.04,4.39,1.94,4.83,4.75,.36,2.34-2.39,4.34-4.31,4.34h0Zm11.19-3.43c1.95-6.53-5.88-16.07-12.05-14.56-5.65,1.38-8.81,5.89-9.75,11.83-1.25,7.86,.24,12.08,7.75,13.63,7.88,1.67,12.77-3.03,14.05-10.91h0Z"/><path d="M114.31,213.73c.02,.08,.03,.13,.03,.18-.23,1.76,.02,3.15-1.54,4.12-.46-.02-5.71-.37-5.72-.38-.64-1.29-.67-5.64,.76-6.14,1-.35,6.04,.06,6.47,2.23h0Zm9.49-20.02c.02-.06,.06-.04,.02-.13-1.13-2.53-3.89-2.25-6.14-2.1-.13,0-.12,.05-.19,.13-.94,1.05-1.47,13.43-2.73,14.82-1.63,.33-8.15-2.88-11.99-.57-2.47,1.48-3.79,13.18-2,15.96,.96,1.79,13.03,4.51,18.97,1.85,2.14-.96,1.71-25.3,4.06-29.95h0Z"/><path d="M69.92,202.64c.4,0,5.37,.26,5.51,.17,1.49-1.04,1.53-5.08,.75-5.69-.08-.06-.14-.07-.14-.07-1.51-.26-4.05-.32-5.62-.32,.05-.32,.43-3.58,.13-4.04-.07-.1-.08-.14-.12-.19-1.66-1.38-3.67-1.76-5.76-1.05-.11,.04-.17,.04-.3,.06-.12,.02-.11,.06-.18,.14-.79,.97,.15,3.36-.2,4.52-1.07-.19-5.79-.58-6.44,.22-.86,1.23-.14,4.39,.5,4.94,2.31,1.99,2.86,.97,5.42,1.2-.47,6.25-2.16,12.31-1.69,18.47,.33,3.96,9.84,3.72,10.44,3.12,1.08-1.05,1.35-4.76,.46-5.44-.08-.06-.14-.07-.14-.07-1.17-.2-3.66,.27-3.82-.31,.53-5.54,1.59-10.06,1.2-15.65h0Z"/><path d="M133.79,193.5c-1.21-2.06-4.24-1.51-6.16-1.24-.13,.02-.12,.06-.19,.14-.69,.86-.21,3.79,.4,4.65-.06,0,.06,.11,.11,.14,.05,.04,.09,.06,.14,.08,.04,.02,.13,.03,.13,.03,.41,.31,4.37,.76,5.12-.08,.19-.21,.61-3.44,.45-3.72h0Z"/><path d="M132.58,201.17c-.57-1.72-4.62,.07-5.37,.37l-.19,.16-.08,.17c-.42,.82-3.56,20.67-2.15,21.83,1.71,1.33,5.98,.03,6.63-1.64,1.68-4.5,2.04-15.45,1.15-20.9h0Z"/></g></g></svg>